<svg width="17" height="17" viewBox="0 0 17 17" fill="none" xmlns="http://www.w3.org/2000/svg">
<path d="M16.6016 7.33041H15.5934C15.1315 4.28004 12.6728 1.86876 9.5625 1.41574V0.426984C9.5625 0.211187 9.3841 0.0362244 9.16406 0.0362244H7.83594C7.6159 0.0362244 7.4375 0.211187 7.4375 0.426984V1.41574C4.3272 1.86876 1.86854 4.28004 1.40662 7.33041H0.398438C0.1784 7.33041 0 7.50537 0 7.72117V9.0237C0 9.2395 0.1784 9.41446 0.398438 9.41446H1.40662C1.86854 12.4648 4.3272 14.8761 7.4375 15.3291V16.3179C7.4375 16.5337 7.6159 16.7087 7.83594 16.7087H9.16406C9.3841 16.7087 9.5625 16.5337 9.5625 16.3179V15.3291C12.6728 14.8761 15.1315 12.4648 15.5934 9.41446H16.6016C16.8216 9.41446 17 9.2395 17 9.0237V7.72117C17 7.50537 16.8216 7.33041 16.6016 7.33041ZM9.5625 13.2125V11.8893C9.5625 11.6735 9.3841 11.4985 9.16406 11.4985H7.83594C7.6159 11.4985 7.4375 11.6735 7.4375 11.8893V13.2125C5.50594 12.8086 3.97717 11.3111 3.56489 9.41446H4.91406C5.1341 9.41446 5.3125 9.2395 5.3125 9.0237V7.72117C5.3125 7.50537 5.1341 7.33041 4.91406 7.33041H3.56489C3.97667 5.43607 5.50365 3.93676 7.4375 3.53242V4.8556C7.4375 5.07139 7.6159 5.24636 7.83594 5.24636H9.16406C9.3841 5.24636 9.5625 5.07139 9.5625 4.8556V3.53242C11.4941 3.93627 13.0228 5.43382 13.4351 7.33041H12.0859C11.8659 7.33041 11.6875 7.50537 11.6875 7.72117V9.0237C11.6875 9.2395 11.8659 9.41446 12.0859 9.41446H13.4351C13.0233 11.3088 11.4963 12.8081 9.5625 13.2125ZM9.5625 8.37244C9.5625 8.94793 9.0868 9.41446 8.5 9.41446C7.9132 9.41446 7.4375 8.94793 7.4375 8.37244C7.4375 7.79695 7.9132 7.33041 8.5 7.33041C9.0868 7.33041 9.5625 7.79695 9.5625 8.37244Z" fill="#77838F"/>
</svg>
