<svg width="11" height="7" viewBox="0 0 11 7" fill="none" xmlns="http://www.w3.org/2000/svg">
<path d="M0.0664473 3.23385C1.10209 1.30503 3.15237 0 5.5 0C7.84763 0 9.89848 1.30594 10.9336 3.23404C10.9772 3.31652 11 3.40766 11 3.50009C11 3.59252 10.9772 3.68366 10.9336 3.76615C9.89791 5.69497 7.84763 7 5.5 7C3.15237 7 1.10152 5.69406 0.0664473 3.76596C0.0227604 3.68347 0 3.59234 0 3.49991C0 3.40748 0.0227604 3.31634 0.0664473 3.23385ZM5.5 6.125C6.0439 6.125 6.57558 5.97105 7.02782 5.68261C7.48006 5.39417 7.83253 4.9842 8.04067 4.50454C8.24881 4.02489 8.30327 3.49709 8.19716 2.98789C8.09105 2.47869 7.82914 2.01096 7.44455 1.64384C7.05995 1.27673 6.56995 1.02672 6.0365 0.925439C5.50305 0.824152 4.95012 0.876136 4.44762 1.07482C3.94512 1.2735 3.51563 1.60995 3.21345 2.04163C2.91128 2.47331 2.74999 2.98082 2.74999 3.5C2.74982 3.84477 2.82083 4.18619 2.95897 4.50474C3.09711 4.8233 3.29966 5.11274 3.55506 5.35653C3.81046 5.60032 4.11369 5.79367 4.44741 5.92553C4.78114 6.05738 5.13881 6.12517 5.5 6.125ZM5.5 1.75C5.66364 1.75218 5.82622 1.77542 5.98335 1.81909C5.85383 1.9871 5.79168 2.19386 5.80816 2.40186C5.82465 2.60987 5.91868 2.80535 6.0732 2.95285C6.22773 3.10035 6.43252 3.19011 6.65043 3.20585C6.86834 3.22158 7.08494 3.16225 7.26096 3.03862C7.36119 3.3911 7.34309 3.7647 7.20923 4.10685C7.07536 4.449 6.83246 4.74246 6.51471 4.94593C6.19696 5.1494 5.82037 5.25264 5.43794 5.2411C5.05551 5.22957 4.68649 5.10385 4.38283 4.88164C4.07917 4.65944 3.85616 4.35192 3.74519 4.00239C3.63421 3.65286 3.64086 3.27891 3.76419 2.93318C3.88753 2.58744 4.12134 2.28733 4.43272 2.07508C4.74411 1.86284 5.11738 1.74914 5.5 1.75Z" fill="white"/>
</svg>
