<svg width="77" height="75" viewBox="0 0 77 75" fill="none" xmlns="http://www.w3.org/2000/svg">
<path d="M75.6905 37.5C75.6905 57.9271 58.866 74.5 38.0952 74.5C17.3245 74.5 0.5 57.9271 0.5 37.5C0.5 17.0729 17.3245 0.5 38.0952 0.5C58.866 0.5 75.6905 17.0729 75.6905 37.5Z" stroke="#1E375E"/>
<path d="M37.8688 52.144C38.127 52.1098 39.7432 51.9338 39.871 51.7243C40.1332 51.2948 40.0701 50.6696 39.9358 50.2636C39.8087 49.8797 38.6841 49.6702 37.8688 49.6353C37.0543 49.671 35.9289 49.8804 35.8026 50.2636C35.6683 50.6696 35.6052 51.2948 35.8673 51.7243C35.9944 51.933 37.6106 52.1098 37.8688 52.144Z" fill="#1E375E"/>
<path d="M32.5355 38.5194C32.4252 38.4169 32.3077 38.3259 32.1838 38.2469C32.1063 38.2864 32.0527 38.3638 32.0527 38.4533C32.0527 38.5831 32.1638 38.6878 32.2997 38.6878C32.4116 38.6878 32.5051 38.6165 32.5355 38.5194Z" fill="#1E375E"/>
<path d="M31.1887 39.3168C30.5228 38.9359 30.371 38.2863 30.3414 37.9047C30.2439 37.9198 30.1536 37.9388 30.072 37.9593C30.1719 38.3698 30.5012 39.3586 31.3901 39.5695C32.4643 39.8237 33.0582 39.439 33.1901 39.3396C33.1757 39.3161 33.1605 39.2925 33.1462 39.269C32.8912 39.3813 32.4739 39.5278 32.0255 39.5278C31.7474 39.527 31.458 39.4716 31.1887 39.3168Z" fill="#1E375E"/>
<path d="M43.6852 38.4533C43.6852 38.3638 43.6316 38.2864 43.5541 38.2469C43.4302 38.3251 43.3127 38.4169 43.2024 38.5194C43.2328 38.6165 43.3263 38.6878 43.4382 38.6878C43.5749 38.6878 43.6852 38.5831 43.6852 38.4533Z" fill="#1E375E"/>
<path d="M42.5474 39.3389C42.6792 39.4383 43.2731 39.823 44.3474 39.5688C45.2362 39.3586 45.5655 38.3699 45.6655 37.9586C45.5839 37.9381 45.4936 37.9199 45.3961 37.904C45.3673 38.2857 45.2147 38.9352 44.5488 39.3162C44.2787 39.4702 43.9901 39.5263 43.7128 39.5263C43.2635 39.5263 42.8463 39.3799 42.5921 39.2676C42.5769 39.2919 42.5626 39.3154 42.5474 39.3389Z" fill="#1E375E"/>
<path d="M57.4782 41.2956C56.0563 38.3119 54.4233 35.5976 52.9917 33.4168C53.2211 32.7726 53.9349 30.5955 54.2274 27.6748C54.5496 24.4552 54.4137 19.6412 51.935 14.995L51.8279 14.7939L51.6129 14.891C51.545 14.9214 44.822 18.0022 41.2243 22.4701L37.8696 23.4414L34.5149 22.4701C30.9173 18.0029 24.1943 14.9221 24.1264 14.891L23.9113 14.7939L23.8042 14.995C21.3256 19.6412 21.1897 24.4552 21.5118 27.6748C21.8044 30.5955 22.5182 32.7733 22.7476 33.4168C21.316 35.5976 19.683 38.3119 18.261 41.2956L18.2195 41.3821L18.751 42.7343L19.4856 42.7852L21.1274 48.7829L21.1481 48.8094C21.1649 48.8307 21.5326 49.2951 22.1856 50.0425L22.8427 49.8687C25.2917 52.6809 30.8821 59.3267 37.6298 61.7731H38.1102C44.858 59.3267 50.4483 52.6809 52.8974 49.8687L53.5544 50.0425C54.2075 49.2951 54.5751 48.8307 54.5919 48.8094L54.6127 48.7829L56.2545 42.7852L56.989 42.7343L57.5206 41.3821L57.4782 41.2956ZM22.6229 48.3071L20.9979 42.9392C22.1649 43.1183 23.6963 43.4529 25.2318 44.0774C28.1125 45.2491 30.6999 46.86 33.543 51.1762L33.5646 51.1656C33.5198 51.3166 33.483 51.4638 33.4551 51.6087C31.169 49.3694 28.1005 48.6114 25.8736 48.3762C24.5836 48.2403 23.4429 48.2563 22.6229 48.3071ZM37.9352 60.9695H37.8025C33.3272 59.9383 25.6235 51.6573 24.2838 49.5941C26.6266 49.3133 30.5784 49.3725 33.3815 52.218C33.3576 52.9215 33.5718 53.4496 33.9938 53.7137C34.4438 53.9952 35.0065 54.1037 35.5684 54.1212L35.5644 54.1234C35.594 54.1712 36.2902 55.2715 37.8656 55.314V55.3148C37.8672 55.3148 37.868 55.3148 37.8696 55.3148C37.8712 55.3148 37.872 55.3148 37.8736 55.3148V55.314C39.4491 55.2715 40.1453 54.1712 40.1748 54.1234L40.1708 54.1212C40.7335 54.1037 41.2955 53.996 41.7455 53.7137C42.1667 53.4504 42.3817 52.9215 42.3577 52.218C45.1601 49.3725 49.1127 49.3133 51.4554 49.5941C50.1142 51.6573 42.4105 59.9383 37.9352 60.9695ZM39.5674 47.483C39.0638 47.0831 38.4971 46.7288 37.872 46.4457V46.4419C37.8704 46.4427 37.8696 46.4434 37.868 46.4434C37.8664 46.4427 37.8656 46.4419 37.864 46.4419V46.4457C37.239 46.7288 36.6731 47.0831 36.1687 47.483L34.1217 41.5415C35.8018 40.9951 37.2798 39.7362 37.868 39.1884C38.4563 39.7362 39.9342 40.9951 41.6144 41.5415L39.5674 47.483ZM42.1187 41.9087L43.1986 42.9339L41.3754 49.4711C40.9957 48.8815 40.5105 48.3033 39.9278 47.785L42.1187 41.9087ZM35.8098 47.785C35.2271 48.3033 34.7419 48.8808 34.3623 49.4711L32.5391 42.9339L33.6189 41.9087L35.8098 47.785ZM34.3199 51.916C34.4422 50.2762 35.4589 48.1402 37.8688 46.9602C40.2787 48.1402 41.2955 50.2762 41.4178 51.916C41.4617 52.5034 41.3202 52.9442 41.0309 53.1256C39.9087 53.8275 38.1726 53.398 37.8728 53.3161V53.3138C37.872 53.3138 37.8704 53.3145 37.8688 53.3145C37.868 53.3145 37.8664 53.3138 37.8648 53.3138V53.3161C37.5651 53.3988 35.829 53.8283 34.7068 53.1256C34.4174 52.9442 34.276 52.5034 34.3199 51.916ZM39.5777 54.109C39.3204 54.3852 38.7712 54.8231 37.8688 54.8512C36.9664 54.8231 36.4173 54.3845 36.1599 54.109C36.8905 54.0574 37.5475 53.8928 37.8688 53.8009C38.1894 53.8928 38.8472 54.0574 39.5777 54.109ZM53.1148 48.3071C52.2947 48.2563 51.1541 48.2396 49.864 48.3762C47.6372 48.6114 44.5686 49.3694 42.2826 51.6087C42.2538 51.4638 42.2179 51.3158 42.1731 51.1656L42.1947 51.1762C45.0378 46.8608 47.6252 45.2491 50.5059 44.0774C52.0413 43.4529 53.5736 43.1183 54.7398 42.9392L53.1148 48.3071ZM51.3707 42.6585C48.49 43.8278 44.5574 46.1498 41.9709 50.5972C41.8806 50.3794 41.7743 50.1594 41.6536 49.9386L43.8085 43.3004C44.551 43.6844 45.9762 44.4212 45.9762 44.4212C45.4702 43.7011 44.5231 43.1358 43.9803 42.8527C44.0267 42.8535 44.0731 42.855 44.1186 42.855C45.4127 42.855 46.4078 42.5166 47.0848 41.8435C48.331 40.6051 48.016 38.7141 48.0024 38.6337C48.0024 38.6337 47.996 38.6929 47.9801 38.7945C47.8722 39.4304 47.2919 41.738 44.547 41.5635C42.9716 41.4633 42.4521 40.6931 42.3282 39.9419C42.3354 39.9282 42.3418 39.9146 42.3489 39.9017C42.5472 40.0246 43.0403 40.2735 43.7933 40.2735C44.0123 40.2735 44.2529 40.2522 44.5143 40.2014C45.3016 40.0474 45.722 39.4714 45.945 38.9509L48.5476 37.7792L47.9857 37.5895C46.0226 36.9286 44.3952 36.965 43.1483 37.6973C42.3178 38.1852 41.7974 38.8985 41.4745 39.5481L41.6839 37.0918L40.7567 40.3198C39.5002 39.7704 38.4563 39.0943 38.171 38.8188L37.9871 36.6069L37.8696 37.1646L37.7521 36.6069L37.5683 38.8188C37.2837 39.095 36.2398 39.7704 34.9825 40.3198L34.0553 37.0918L34.2648 39.5481C33.9418 38.8985 33.4215 38.1852 32.591 37.6973C31.3441 36.9643 29.7167 36.9286 27.7536 37.5895L27.1917 37.7792L29.7942 38.9509C30.0173 39.4714 30.4377 40.0474 31.225 40.2014C31.4864 40.2522 31.727 40.2735 31.946 40.2735C32.6997 40.2735 33.1921 40.0254 33.3903 39.9017C33.3975 39.9153 33.4047 39.929 33.4111 39.9419C33.2872 40.6939 32.7677 41.4633 31.1922 41.5635C28.4474 41.738 27.8671 39.4297 27.7592 38.7945C27.7432 38.6929 27.7368 38.6337 27.7368 38.6337C27.7224 38.7134 27.4075 40.6051 28.6544 41.8435C29.3314 42.5158 30.3266 42.855 31.6207 42.855C31.6662 42.855 31.7126 42.8535 31.7589 42.8527C31.2162 43.1358 30.269 43.7011 29.7631 44.4212C29.7631 44.4212 31.1874 43.6844 31.9308 43.3004L34.0857 49.9386C33.965 50.1594 33.8587 50.3794 33.7684 50.5972C31.1818 46.1498 27.2493 43.8278 24.3686 42.6585C22.6085 41.9436 21.0442 41.565 19.974 41.3669C21.0123 36.8398 23.3462 33.4472 24.9009 31.1457L25.9104 28.8988C25.8569 28.9724 25.8001 29.0498 25.7418 29.1295C25.2174 29.8466 24.4365 30.9142 23.5293 32.2475C23.2128 31.5084 22.5933 29.8056 22.3431 27.2916C22.053 24.3793 21.9626 20.7187 23.8602 16.5855C27.3252 21.6604 25.5084 25.8476 25.5084 25.8476L26.6442 24.6919C26.6442 26.6565 25.7418 29.1302 25.7418 29.1302C27.7272 26.3446 27.4962 22.958 27.4962 22.958L26.8064 23.6516C27.5778 20.5313 24.2702 15.7447 24.2702 15.7447C25.4452 16.3092 30.775 19.0782 33.9315 23.04L33.9794 23.0999L34.0873 23.1227C33.7588 23.8458 33.1785 25.0911 32.822 25.6511C32.3185 26.4417 30.7007 28.5019 30.7007 28.5019C30.7822 28.4299 32.6997 26.7369 33.2393 25.8901C33.6325 25.2724 34.3871 23.9134 34.7451 23.2623L37.8672 23.9255V23.927L37.8712 23.9263L37.8752 23.927V23.9255L40.9973 23.2623C41.3554 23.9134 42.1092 25.2724 42.5032 25.8901C43.042 26.7362 44.9603 28.4299 45.0418 28.5019C45.0418 28.5019 43.424 26.4425 42.9205 25.6511C42.564 25.0911 41.9837 23.8458 41.6551 23.1227L41.7631 23.0999L41.811 23.04C44.9675 19.0782 50.2973 16.3092 51.4722 15.7447C51.4722 15.7447 48.1655 20.5313 48.936 23.6516L48.2462 22.958C48.2462 22.958 48.0152 26.3446 50.0007 29.1302C50.0007 29.1302 49.0983 26.6565 49.0983 24.6919L50.2341 25.8476C50.2341 25.8476 48.4165 21.6604 51.8823 16.5855C53.7798 20.7195 53.6895 24.38 53.3994 27.2916C53.1492 29.8056 52.5297 31.5084 52.2132 32.2475C51.306 30.9142 50.5251 29.8466 50.0007 29.1295C49.9424 29.0498 49.8856 28.9724 49.8321 28.8988L50.8416 31.1457C52.3962 33.4479 54.7302 36.8398 55.7685 41.3669C54.6942 41.565 53.1308 41.9444 51.3707 42.6585Z" fill="#1E375E"/>
<path d="M36.4008 52.6014C37.4471 52.8192 37.7021 52.9163 37.7093 52.9193H38.0282C38.0362 52.9163 38.2904 52.8192 39.3367 52.6014C39.7571 52.5141 40.0864 52.291 40.291 51.9564C40.6323 51.3979 40.5708 50.6444 40.3989 50.1254C40.1344 49.3256 38.4007 49.1935 37.8715 49.1723C37.8707 49.1723 37.8691 49.1723 37.8675 49.1723C37.8668 49.1723 37.8651 49.1723 37.8635 49.1723C37.3344 49.1935 35.6007 49.3256 35.3361 50.1254C35.1643 50.6444 35.1027 51.3979 35.444 51.9564C35.6503 52.2903 35.9804 52.5134 36.4008 52.6014ZM35.8021 50.2635C35.9292 49.8795 37.0539 49.6701 37.8683 49.6352C38.6828 49.6708 39.8083 49.8803 39.9354 50.2635C40.0696 50.6694 40.1328 51.2947 39.8706 51.7242C39.7427 51.9336 38.1265 52.1104 37.8683 52.1438C37.6102 52.1097 35.994 51.9336 35.8661 51.7242C35.6047 51.2947 35.6687 50.6687 35.8021 50.2635Z" fill="#1E375E"/>
</svg>
