<svg width="64" height="63" viewBox="0 0 64 63" fill="none" xmlns="http://www.w3.org/2000/svg">
<ellipse cx="32" cy="31.5" rx="32" ry="31.5" fill="white"/>
<path d="M31.8099 43.8009C32.0267 43.7722 33.3843 43.6244 33.4918 43.4484C33.712 43.0877 33.659 42.5624 33.5462 42.2214C33.4394 41.8989 32.4947 41.723 31.8099 41.6937C31.1257 41.7236 30.1803 41.8995 30.0743 42.2214C29.9615 42.5624 29.9084 43.0877 30.1286 43.4484C30.2354 43.6237 31.593 43.7722 31.8099 43.8009Z" fill="#001028"/>
<path d="M27.3298 32.3563C27.2372 32.2702 27.1385 32.1937 27.0344 32.1274C26.9693 32.1606 26.9243 32.2256 26.9243 32.3008C26.9243 32.4098 27.0176 32.4978 27.1318 32.4978C27.2258 32.4978 27.3043 32.4379 27.3298 32.3563Z" fill="#4A8CFF"/>
<path d="M26.1985 33.0261C25.6392 32.7061 25.5116 32.1605 25.4868 31.8399C25.4049 31.8527 25.329 31.8686 25.2605 31.8858C25.3444 32.2306 25.621 33.0612 26.3677 33.2384C27.27 33.4519 27.7689 33.1287 27.8797 33.0452C27.8676 33.0255 27.8549 33.0057 27.8428 32.986C27.6286 33.0803 27.2781 33.2033 26.9014 33.2033C26.6678 33.2027 26.4247 33.1562 26.1985 33.0261Z" fill="#4A8CFF"/>
<path d="M36.6956 32.3008C36.6956 32.2256 36.6506 32.1606 36.5855 32.1274C36.4814 32.1931 36.3827 32.2702 36.29 32.3563C36.3156 32.4379 36.3941 32.4978 36.4881 32.4978C36.6029 32.4978 36.6956 32.4098 36.6956 32.3008Z" fill="#4A8CFF"/>
<path d="M35.7397 33.0447C35.8505 33.1282 36.3494 33.4514 37.2518 33.2378C37.9984 33.0613 38.275 32.2307 38.3589 31.8852C38.2905 31.868 38.2146 31.8527 38.1327 31.8394C38.1085 32.16 37.9803 32.7056 37.421 33.0256C37.194 33.155 36.9517 33.2021 36.7187 33.2021C36.3413 33.2021 35.9909 33.0791 35.7773 32.9848C35.7646 33.0052 35.7525 33.0249 35.7397 33.0447Z" fill="#4A8CFF"/>
<path d="M48.2818 34.6883C47.0873 32.182 45.7156 29.902 44.5131 28.0701C44.7058 27.529 45.3054 25.7003 45.5511 23.2469C45.8217 20.5424 45.7076 16.4986 43.6255 12.5958L43.5355 12.4269L43.3549 12.5085C43.2979 12.534 37.6506 15.1218 34.6285 18.8749L31.8106 19.6908L28.9926 18.8749C25.9706 15.1225 20.3233 12.5346 20.2662 12.5085L20.0856 12.4269L19.9956 12.5958C17.9136 16.4986 17.7994 20.5424 18.07 23.2469C18.3158 25.7003 18.9153 27.5296 19.108 28.0701C17.9055 29.902 16.5338 32.182 15.3394 34.6883L15.3044 34.761L15.7509 35.8969L16.368 35.9396L17.7471 40.9776L17.7645 40.9999C17.7786 41.0178 18.0875 41.4079 18.636 42.0357L19.1879 41.8898C21.2451 44.252 25.941 49.8344 31.6091 51.8894H32.0127C37.6808 49.8344 42.3767 44.252 44.4339 41.8898L44.9858 42.0357C45.5343 41.4079 45.8432 41.0178 45.8573 40.9999L45.8748 40.9776L47.2538 35.9396L47.8709 35.8969L48.3174 34.761L48.2818 34.6883ZM19.0033 40.578L17.6383 36.069C18.6186 36.2194 19.905 36.5005 21.1948 37.0251C23.6146 38.0092 25.788 39.3624 28.1762 42.988L28.1943 42.9791C28.1567 43.1059 28.1258 43.2296 28.1023 43.3513C26.1821 41.4703 23.6045 40.8336 21.7339 40.636C20.6503 40.5219 19.6922 40.5353 19.0033 40.578ZM31.8656 51.2144H31.7542C27.9949 50.3482 21.5238 43.3921 20.3985 41.659C22.3664 41.4232 25.6859 41.4729 28.0406 43.8632C28.0204 44.4541 28.2004 44.8977 28.5549 45.1195C28.9329 45.356 29.4056 45.4471 29.8776 45.4618L29.8742 45.4637C29.899 45.5039 30.4839 46.4281 31.8072 46.4638V46.4644C31.8086 46.4644 31.8092 46.4644 31.8106 46.4644C31.8119 46.4644 31.8126 46.4644 31.8139 46.4644V46.4638C33.1373 46.4281 33.7221 45.5039 33.7469 45.4637L33.7436 45.4618C34.2163 45.4471 34.6883 45.3566 35.0663 45.1195C35.4201 44.8983 35.6007 44.4541 35.5806 43.8632C37.9346 41.4729 41.2547 41.4232 43.2227 41.659C42.096 43.3921 35.6249 50.3482 31.8656 51.2144ZM33.2367 39.8858C32.8137 39.5498 32.3376 39.2522 31.8126 39.0144V39.0112C31.8112 39.0119 31.8106 39.0125 31.8092 39.0125C31.8079 39.0119 31.8072 39.0112 31.8059 39.0112V39.0144C31.2808 39.2522 30.8055 39.5498 30.3818 39.8858L28.6623 34.8949C30.0736 34.4359 31.3151 33.3785 31.8092 32.9183C32.3034 33.3785 33.5448 34.4359 34.9562 34.8949L33.2367 39.8858ZM35.3798 35.2034L36.2869 36.0645L34.7554 41.5558C34.4365 41.0605 34.0289 40.5748 33.5395 40.1394L35.3798 35.2034ZM30.0803 40.1394C29.5909 40.5748 29.1833 41.0599 28.8644 41.5558L27.3329 36.0645L28.24 35.2034L30.0803 40.1394ZM28.8288 43.6095C28.9315 42.232 29.7856 40.4377 31.8099 39.4466C33.8342 40.4377 34.6883 42.232 34.791 43.6095C34.8279 44.1028 34.7091 44.4732 34.466 44.6255C33.5234 45.2151 32.065 44.8543 31.8133 44.7855V44.7836C31.8126 44.7836 31.8112 44.7842 31.8099 44.7842C31.8092 44.7842 31.8079 44.7836 31.8065 44.7836V44.7855C31.5548 44.855 30.0964 45.2158 29.1538 44.6255C28.9107 44.4732 28.7919 44.1028 28.8288 43.6095ZM33.2454 45.4516C33.0292 45.6836 32.5679 46.0514 31.8099 46.075C31.0519 46.0514 30.5906 45.683 30.3744 45.4516C30.9881 45.4083 31.54 45.2699 31.8099 45.1928C32.0791 45.2699 32.6317 45.4083 33.2454 45.4516ZM44.6165 40.578C43.9276 40.5353 42.9695 40.5212 41.8859 40.636C40.0153 40.8336 37.4377 41.4703 35.5175 43.3513C35.4933 43.2296 35.4631 43.1053 35.4255 42.9791L35.4436 42.988C37.8318 39.3631 40.0052 38.0092 42.425 37.0251C43.7148 36.5005 45.0019 36.2194 45.9815 36.069L44.6165 40.578ZM43.1515 35.8331C40.7317 36.8154 37.4283 38.7658 35.2556 42.5017C35.1797 42.3187 35.0904 42.1339 34.9891 41.9484L36.7992 36.3724C37.4229 36.6949 38.6201 37.3138 38.6201 37.3138C38.1951 36.7089 37.3995 36.234 36.9436 35.9963C36.9825 35.9969 37.0214 35.9982 37.0597 35.9982C38.1467 35.9982 38.9827 35.7139 39.5513 35.1485C40.5981 34.1083 40.3335 32.5199 40.3221 32.4523C40.3221 32.4523 40.3168 32.502 40.3033 32.5874C40.2127 33.1216 39.7252 35.0599 37.4196 34.9133C36.0962 34.8292 35.6598 34.1822 35.5557 33.5512C35.5618 33.5397 35.5672 33.5283 35.5732 33.5174C35.7397 33.6207 36.154 33.8298 36.7864 33.8298C36.9704 33.8298 37.1725 33.8119 37.3921 33.7692C38.0534 33.6398 38.4066 33.156 38.5939 32.7187L40.78 31.7346L40.308 31.5752C38.659 31.0201 37.292 31.0507 36.2446 31.6658C35.547 32.0756 35.1099 32.6748 34.8387 33.2204L35.0146 31.1571L34.2357 33.8686C33.1803 33.4071 32.3034 32.8392 32.0637 32.6078L31.9093 30.7498L31.8106 31.2183L31.7119 30.7498L31.5574 32.6078C31.3184 32.8399 30.4415 33.4071 29.3854 33.8686L28.6066 31.1571L28.7825 33.2204C28.5112 32.6748 28.0741 32.0756 27.3765 31.6658C26.3291 31.05 24.9621 31.0201 23.3131 31.5752L22.8411 31.7346L25.0272 32.7187C25.2146 33.156 25.5677 33.6398 26.2291 33.7692C26.4486 33.8119 26.6507 33.8298 26.8347 33.8298C27.4678 33.8298 27.8814 33.6213 28.0479 33.5174C28.054 33.5289 28.06 33.5404 28.0654 33.5512C27.9613 34.1829 27.5249 34.8292 26.2016 34.9133C23.8959 35.0599 23.4085 33.1209 23.3178 32.5874C23.3044 32.502 23.299 32.4523 23.299 32.4523C23.2869 32.5192 23.0224 34.1083 24.0698 35.1485C24.6385 35.7133 25.4744 35.9982 26.5614 35.9982C26.5997 35.9982 26.6386 35.9969 26.6776 35.9963C26.2217 36.234 25.4261 36.7089 25.0011 37.3138C25.0011 37.3138 26.1975 36.6949 26.8219 36.3724L28.6321 41.9484C28.5307 42.1339 28.4414 42.3187 28.3655 42.5017C26.1928 38.7658 22.8894 36.8154 20.4697 35.8331C18.9912 35.2327 17.6772 34.9146 16.7782 34.7483C17.6504 30.9455 19.6109 28.0956 20.9168 26.1624L21.7648 24.275C21.7198 24.3368 21.6722 24.4019 21.6232 24.4688C21.1827 25.0711 20.5267 25.968 19.7647 27.0879C19.4988 26.4671 18.9784 25.0367 18.7683 22.925C18.5246 20.4786 18.4487 17.4038 20.0426 13.9318C22.9532 18.1948 21.4271 21.712 21.4271 21.712L22.3812 20.7412C22.3812 22.3915 21.6232 24.4694 21.6232 24.4694C23.291 22.1295 23.0969 19.2847 23.0969 19.2847L22.5175 19.8673C23.1654 17.2463 20.3871 13.2256 20.3871 13.2256C21.3741 13.6998 25.8511 16.0257 28.5025 19.3536L28.5428 19.4039L28.6334 19.4231C28.3575 20.0305 27.87 21.0765 27.5706 21.5469C27.1476 22.2111 25.7886 23.9416 25.7886 23.9416C25.8571 23.8811 27.4678 22.459 27.9211 21.7477C28.2514 21.2288 28.8852 20.0872 29.186 19.5403L31.8086 20.0974V20.0987L31.8119 20.0981L31.8153 20.0987V20.0974L34.4378 19.5403C34.7386 20.0872 35.3718 21.2288 35.7028 21.7477C36.1553 22.4584 37.7667 23.8811 37.8352 23.9416C37.8352 23.9416 36.4763 22.2117 36.0533 21.5469C35.7538 21.0765 35.2664 20.0305 34.9904 19.4231L35.081 19.4039L35.1213 19.3536C37.7728 16.0257 42.2498 13.6998 43.2368 13.2256C43.2368 13.2256 40.4591 17.2463 41.1063 19.8673L40.5269 19.2847C40.5269 19.2847 40.3329 22.1295 42.0007 24.4694C42.0007 24.4694 41.2426 22.3915 41.2426 20.7412L42.1967 21.712C42.1967 21.712 40.6699 18.1948 43.5812 13.9318C45.1751 17.4044 45.0993 20.4792 44.8555 22.925C44.6454 25.0367 44.125 26.4671 43.8592 27.0879C43.0971 25.968 42.4411 25.0711 42.0007 24.4688C41.9517 24.4019 41.904 24.3368 41.859 24.275L42.707 26.1624C44.0129 28.0963 45.9734 30.9455 46.8456 34.7483C45.9432 34.9146 44.6299 35.2333 43.1515 35.8331Z" fill="#001028"/>
<path d="M30.5767 44.1852C31.4555 44.3681 31.6697 44.4497 31.6758 44.4523H31.9437C31.9504 44.4497 32.1639 44.3681 33.0428 44.1852C33.3959 44.1119 33.6726 43.9245 33.8444 43.6434C34.1311 43.1743 34.0794 42.5413 33.9351 42.1053C33.7128 41.4335 32.2565 41.3226 31.8121 41.3047C31.8114 41.3047 31.8101 41.3047 31.8087 41.3047C31.808 41.3047 31.8067 41.3047 31.8054 41.3047C31.3609 41.3226 29.9046 41.4335 29.6823 42.1053C29.538 42.5413 29.4863 43.1743 29.773 43.6434C29.9462 43.9239 30.2235 44.1112 30.5767 44.1852ZM30.0738 42.2213C30.1805 41.8988 31.1252 41.7229 31.8094 41.6936C32.4936 41.7235 33.4389 41.8994 33.5457 42.2213C33.6585 42.5623 33.7115 43.0876 33.4913 43.4483C33.3839 43.6243 32.0263 43.7728 31.8094 43.8008C31.5925 43.7722 30.2349 43.6243 30.1275 43.4483C29.9079 43.0876 29.9616 42.5617 30.0738 42.2213Z" fill="#001028"/>
</svg>
