<svg width="18" height="17" viewBox="0 0 18 17" fill="none" xmlns="http://www.w3.org/2000/svg">
<ellipse cx="9.99996" cy="8.51782" rx="2.45455" ry="2.31893" stroke="#77838F" stroke-width="1.74713" stroke-linecap="round" stroke-linejoin="round"/>
<path fill-rule="evenodd" clip-rule="evenodd" d="M14.3818 10.5912C14.1837 11.0105 14.2788 11.5003 14.6218 11.828L14.6655 11.8687C14.9386 12.1237 15.0921 12.4696 15.0921 12.8303C15.0921 13.191 14.9386 13.5369 14.6655 13.7919C14.3926 14.0471 14.0224 14.1905 13.6364 14.1905C13.2503 14.1905 12.8801 14.0471 12.6073 13.7919L12.5636 13.7511C12.213 13.4306 11.6888 13.3418 11.24 13.5268C10.8004 13.7029 10.5146 14.1061 10.5127 14.553V14.6685C10.5127 15.4191 9.86151 16.0276 9.05818 16.0276C8.25486 16.0276 7.60364 15.4191 7.60364 14.6685V14.6073C7.59211 14.147 7.28063 13.7401 6.81818 13.5812C6.36939 13.3961 5.84523 13.4849 5.49455 13.8054L5.45091 13.8462C5.17808 14.1014 4.80787 14.2448 4.42182 14.2448C4.03577 14.2448 3.66555 14.1014 3.39273 13.8462C3.1196 13.5913 2.96613 13.2454 2.96613 12.8847C2.96613 12.5239 3.1196 12.178 3.39273 11.9231L3.43636 11.8823C3.77939 11.5547 3.87443 11.0649 3.67636 10.6455C3.48795 10.2348 3.05647 9.96778 2.57818 9.96599H2.45455C1.65122 9.96599 1 9.35751 1 8.6069C1 7.85629 1.65122 7.2478 2.45455 7.2478H2.52C3.0126 7.23703 3.4481 6.94599 3.61818 6.51389C3.81625 6.09454 3.72121 5.60477 3.37818 5.27711L3.33455 5.23633C3.06142 4.98141 2.90795 4.63549 2.90795 4.27477C2.90795 3.91405 3.06142 3.56813 3.33455 3.31321C3.60737 3.058 3.97759 2.9146 4.36364 2.9146C4.74969 2.9146 5.1199 3.058 5.39273 3.31321L5.43636 3.35398C5.78704 3.6745 6.31121 3.76331 6.76 3.57823H6.81818C7.2578 3.40218 7.54355 2.99901 7.54545 2.55211V2.43659C7.54545 1.68598 8.19668 1.07749 9 1.07749C9.80332 1.07749 10.4545 1.68598 10.4545 2.43659V2.49775C10.4565 2.94465 10.7422 3.34782 11.1818 3.52387C11.6306 3.70894 12.1548 3.62014 12.5055 3.29962L12.5491 3.25884C12.8219 3.00364 13.1921 2.86024 13.5782 2.86024C13.9642 2.86024 14.3344 3.00364 14.6073 3.25884C14.8804 3.51377 15.0339 3.85969 15.0339 4.22041C15.0339 4.58112 14.8804 4.92704 14.6073 5.18197L14.5636 5.22274C14.2206 5.55041 14.1256 6.04018 14.3236 6.45952V6.51389C14.512 6.92465 14.9435 7.19165 15.4218 7.19343H15.5455C16.3488 7.19343 17 7.80192 17 8.55253C17 9.30314 16.3488 9.91163 15.5455 9.91163H15.48C15.0017 9.91341 14.5702 10.1804 14.3818 10.5912Z" stroke="#77838F" stroke-width="1.74713" stroke-linecap="round" stroke-linejoin="round"/>
</svg>
