<svg width="17" height="11" viewBox="0 0 17 11" fill="none" xmlns="http://www.w3.org/2000/svg">
<path d="M16.9965 1.38121C16.9965 1.83925 16.6302 2.21207 16.1802 2.21207H4.94685C4.49682 2.21207 4.13052 1.83925 4.13052 1.38121C4.13052 0.923176 4.49682 0.550355 4.94685 0.550355H16.1837C16.6337 0.553906 16.9965 0.923176 16.9965 1.38121ZM16.1837 4.66914H4.94685C4.49682 4.66914 4.13052 5.04196 4.13052 5.5C4.13052 5.95804 4.49682 6.33086 4.94685 6.33086H16.1837C16.6337 6.33086 17 5.95804 17 5.5C16.9965 5.04196 16.6337 4.66914 16.1837 4.66914ZM16.1837 8.78793H4.94685C4.49682 8.78793 4.13052 9.16075 4.13052 9.61879C4.13052 10.0768 4.49682 10.4496 4.94685 10.4496H16.1837C16.6337 10.4496 17 10.0768 17 9.61879C16.9965 9.16075 16.6337 8.78793 16.1837 8.78793ZM1.35707 0C0.607018 0 0 0.617818 0 1.38121C0 2.14461 0.607018 2.76598 1.35707 2.76598C2.10712 2.76598 2.71414 2.14461 2.71414 1.38121C2.71414 0.617818 2.10712 0 1.35707 0ZM1.35707 4.11879C0.607018 4.11879 0 4.7366 0 5.5C0 6.2634 0.607018 6.88121 1.35707 6.88121C2.10712 6.88121 2.71414 6.2634 2.71414 5.5C2.71414 4.7366 2.10712 4.11879 1.35707 4.11879ZM1.35707 8.23757C0.607018 8.23757 0 8.85539 0 9.61879C0 10.3822 0.607018 11 1.35707 11C2.10712 11 2.71414 10.3822 2.71414 9.61879C2.71414 8.85539 2.10712 8.23757 1.35707 8.23757Z" fill="#1E375E"/>
</svg>
