<svg width="17" height="14" viewBox="0 0 17 14" fill="none" xmlns="http://www.w3.org/2000/svg">
<path d="M17 3.92042V3.36048C17 2.89661 16.6432 2.52057 16.2031 2.52057H4.25V0.840748C4.25 0.0929828 3.39007 -0.280603 2.88963 0.246826L0.233385 3.04653C-0.077795 3.37455 -0.077795 3.90635 0.233385 4.23434L2.88963 7.03404C3.38818 7.55941 4.25 7.19103 4.25 6.44015V4.76033H16.2031C16.6432 4.76033 17 4.3843 17 3.92042ZM0.796875 9.23986H12.75V7.56004C12.75 6.81412 13.6087 6.43736 14.1104 6.96611L16.7666 9.76582C17.0778 10.0938 17.0778 10.6256 16.7666 10.9536L14.1104 13.7533C13.6114 14.2792 12.75 13.9097 12.75 13.1594V11.4796H0.796875C0.356768 11.4796 0 11.1036 0 10.6397V10.0798C0 9.61589 0.356768 9.23986 0.796875 9.23986Z" fill="#77838F"/>
</svg>
