<svg width="19" height="24" viewBox="0 0 19 24" fill="none" xmlns="http://www.w3.org/2000/svg">
<path d="M9.49997 3.59052C7.20999 3.59052 5.34608 5.44538 5.34608 7.72692C5.34608 10.0084 7.20995 11.8633 9.49997 11.8633C11.79 11.8633 13.6539 10.0084 13.6539 7.72692C13.6539 5.44538 11.79 3.59052 9.49997 3.59052ZM9.49997 10.878C7.75404 10.878 6.33444 9.46375 6.33444 7.72692C6.33444 5.99008 7.75405 4.57575 9.49997 4.57575C11.2459 4.57575 12.6655 5.99004 12.6655 7.72687C12.6655 9.46371 11.2459 10.878 9.49997 10.878Z" fill="#77838F" stroke="#77838F" stroke-width="0.28"/>
<path d="M10.3822 7.84667L10.3823 7.84669C10.6373 7.94231 10.7672 8.22607 10.6709 8.48113L10.6708 8.48122C10.4912 8.95589 10.0192 9.26961 9.50006 9.26961C8.98088 9.26961 8.50891 8.9559 8.32937 8.48117L10.3822 7.84667ZM10.3822 7.84667C10.1277 7.75142 9.84233 7.87902 9.74594 8.13387L9.74593 8.1339M10.3822 7.84667L9.74593 8.1339M9.74593 8.1339C9.7146 8.21679 9.62058 8.28502 9.50006 8.28502C9.37947 8.28502 9.28551 8.21681 9.25419 8.13394L9.25418 8.13391M9.74593 8.1339L9.25418 8.13391M9.25418 8.13391C9.15779 7.87908 8.87275 7.75149 8.61804 7.84663L8.61795 7.84667M9.25418 8.13391L8.61795 7.84667M8.61795 7.84667C8.36282 7.94217 8.23282 8.22602 8.32935 8.48114L8.61795 7.84667Z" fill="#77838F" stroke="#77838F" stroke-width="0.28"/>
<path d="M16.1989 17.6087L16.1989 17.6086C15.8597 16.1205 15.0131 14.7704 13.8151 13.8062L13.8151 13.8062C12.5988 12.8275 11.0665 12.2886 9.49999 12.2886C7.93343 12.2886 6.40124 12.8275 5.18492 13.8063L5.18492 13.8063C3.98688 14.7705 3.14026 16.1206 2.80106 17.6088L2.80106 17.6088C2.74049 17.8747 2.90794 18.1383 3.17373 18.1984L3.17399 18.1984C3.21015 18.2065 3.24677 18.2107 3.28331 18.2107C3.50855 18.2107 3.71265 18.0562 3.7649 17.8271L3.76491 17.8271C4.37583 15.1463 6.73326 13.2739 9.49994 13.2739C12.2666 13.2739 14.624 15.1463 15.235 17.827L15.235 17.827C15.2957 18.093 15.5608 18.2577 15.8259 18.1983L15.8262 18.1983C16.092 18.1382 16.2594 17.8746 16.1989 17.6087Z" fill="#77838F" stroke="#77838F" stroke-width="0.28"/>
<path d="M17.1516 18.6362H1.84831V1.75526H17.1516V18.6362ZM17.6458 0.770034H1.35416C1.08178 0.770034 0.86 0.989973 0.86 1.26265V19.1288C0.86 19.4015 1.08178 19.6214 1.35416 19.6214H17.6458C17.9182 19.6214 18.1399 19.4015 18.1399 19.1288V1.26265C18.1399 0.989973 17.9182 0.770034 17.6458 0.770034Z" fill="#77838F" stroke="#77838F" stroke-width="0.28"/>
<path d="M17.6457 20.3987H14.8124C14.5401 20.3987 14.3183 20.6184 14.3183 20.891C14.3183 21.1636 14.5401 21.3833 14.8124 21.3833H17.6457C17.918 21.3833 18.1399 21.1636 18.1399 20.891C18.1399 20.6184 17.918 20.3987 17.6457 20.3987Z" fill="#77838F" stroke="#77838F" stroke-width="0.28"/>
<path d="M1.35416 20.3987H13.3958C13.6681 20.3987 13.89 20.6183 13.8899 20.891L1.35416 20.3987ZM1.35416 20.3987C1.08189 20.3987 0.86 20.6184 0.86 20.891M1.35416 20.3987L0.86 20.891M0.86 20.891C0.86 21.1636 1.08189 21.3833 1.35416 21.3833M0.86 20.891L1.35416 21.3833M1.35416 21.3833H13.3958M1.35416 21.3833H13.3958M13.3958 21.3833C13.668 21.3833 13.8899 21.1636 13.8899 20.891L13.3958 21.3833Z" fill="#77838F" stroke="#77838F" stroke-width="0.28"/>
<path d="M9.49997 22.1623H1.35416C1.08189 22.1623 0.86 22.382 0.86 22.6546C0.86 22.9272 1.08189 23.1469 1.35416 23.1469H9.49997C9.77223 23.1469 9.99413 22.9272 9.99413 22.6546C9.99413 22.382 9.77223 22.1623 9.49997 22.1623Z" fill="#77838F" stroke="#77838F" stroke-width="0.28"/>
</svg>
