<svg width="13" height="16" viewBox="0 0 13 16" fill="none" xmlns="http://www.w3.org/2000/svg">
<g opacity="0.36">
<path d="M8.73994 0.910947L8.70345 0.875H8.65223H1H0.875V1V15V15.125H1H12H12.125V15V4.29764V4.24531L12.0877 4.20858L8.73994 0.910947ZM1.7077 14.3052V1.6948H8.11456V4.69991V4.82491H8.23956H11.2923V14.3052H1.7077ZM8.94726 4.00512V2.27484L10.7038 4.00512H8.94726Z" fill="#77838F" stroke="#77838F" stroke-width="0.25"/>
<path d="M7.55818 4.13V4.005H7.43318H2.69873H2.57373V4.13V4.6998V4.8248H2.69873H7.43318H7.55818V4.6998V4.13Z" fill="#77838F" stroke="#77838F" stroke-width="0.25"/>
<path d="M10.4255 6.7406V6.6156H10.3005H2.69873H2.57373V6.7406V7.3104V7.4354H2.69873H10.3005H10.4255V7.3104V6.7406Z" fill="#77838F" stroke="#77838F" stroke-width="0.25"/>
<path d="M10.4255 9.35107V9.22607H10.3005H2.69873H2.57373V9.35107V9.92087V10.0459H2.69873H10.3005H10.4255V9.92087V9.35107Z" fill="#77838F" stroke="#77838F" stroke-width="0.25"/>
<path d="M10.4255 11.9614V11.8364H10.3005H2.69873H2.57373V11.9614V12.5312V12.6562H2.69873H10.3005H10.4255V12.5312V11.9614Z" fill="#77838F" stroke="#77838F" stroke-width="0.25"/>
</g>
</svg>
